<svg width="35" height="35" viewBox="0 0 35 35" fill="none" xmlns="http://www.w3.org/2000/svg">
<path d="M17.5 35C16.8292 35 16.1905 34.7104 15.7267 34.2015C14.4302 33.1164 0 20.8219 0 10.5112C0 4.71535 4.33121 0 9.65416 0C12.8099 0 15.7149 1.66568 17.5 4.37977C19.2851 1.66568 22.1901 0 25.3458 0C30.6688 0 35 4.71535 35 10.5112C35 20.8219 20.5698 33.1164 19.2733 34.2015C18.8095 34.7104 18.1708 35 17.5 35ZM9.65416 2.38637C5.53738 2.38637 2.1875 6.03118 2.1875 10.5112C2.1875 19.904 16.9707 32.2352 17.1195 32.3593C17.1748 32.4036 17.2258 32.4563 17.2712 32.512C17.3804 32.6471 17.6167 32.6471 17.7262 32.512C17.7726 32.4563 17.8236 32.4053 17.8776 32.3593C18.0293 32.2352 32.8125 19.8958 32.8125 10.5112C32.8125 6.03118 29.4626 2.38637 25.3458 2.38637C22.3679 2.38637 19.6832 4.30024 18.5032 7.25932C18.1564 8.12945 16.8436 8.12945 16.4968 7.25932C15.3168 4.30024 12.6307 2.38637 9.65416 2.38637Z" fill="#585858"/>
</svg>
